<?xml version="1.0" encoding="UTF-8" standalone="no"?>
<!DOCTYPE svg PUBLIC "-//W3C//DTD SVG 1.1//EN"
 "http://www.w3.org/Graphics/SVG/1.1/DTD/svg11.dtd">
<!-- Generated by graphviz version 5.0.0 (20220707.1540)
 -->
<!-- Title: dependencies Pages: 1 -->
<svg width="596pt" height="174pt"
 viewBox="0.00 0.00 596.00 173.80" xmlns="http://www.w3.org/2000/svg" xmlns:xlink="http://www.w3.org/1999/xlink">
<g id="graph0" class="graph" transform="scale(1 1) rotate(0) translate(4 169.8)">
<title>dependencies</title>
<polygon fill="white" stroke="transparent" points="-4,4 -4,-169.8 592,-169.8 592,4 -4,4"/>
<text text-anchor="middle" x="294" y="-8.2" font-family="sans-serif" font-size="14.00">dependencies</text>
<g id="clust1" class="cluster">
<title>cluster_GqlApiModule</title>
<polygon fill="none" stroke="black" stroke-dasharray="1,5" points="8,-32.8 8,-157.8 580,-157.8 580,-32.8 8,-32.8"/>
</g>
<g id="clust3" class="cluster">
<title>cluster_GqlApiModule_imports</title>
<polygon fill="none" stroke="black" points="446,-40.8 446,-92.8 572,-92.8 572,-40.8 446,-40.8"/>
</g>
<g id="clust6" class="cluster">
<title>cluster_GqlApiModule_providers</title>
<polygon fill="none" stroke="black" points="16,-40.8 16,-92.8 438,-92.8 438,-40.8 16,-40.8"/>
</g>
<!-- DatabaseModule -->
<g id="node1" class="node">
<title>DatabaseModule</title>
<polygon fill="#8dd3c7" stroke="black" points="564.36,-84.8 561.36,-88.8 540.36,-88.8 537.36,-84.8 453.64,-84.8 453.64,-48.8 564.36,-48.8 564.36,-84.8"/>
<text text-anchor="middle" x="509" y="-62.6" font-family="Times,serif" font-size="14.00">DatabaseModule</text>
</g>
<!-- GqlApiModule -->
<g id="node2" class="node">
<title>GqlApiModule</title>
<polygon fill="#8dd3c7" stroke="black" points="346.55,-149.8 343.55,-153.8 322.55,-153.8 319.55,-149.8 245.45,-149.8 245.45,-113.8 346.55,-113.8 346.55,-149.8"/>
<text text-anchor="middle" x="296" y="-127.6" font-family="Times,serif" font-size="14.00">GqlApiModule</text>
</g>
<!-- DatabaseModule&#45;&gt;GqlApiModule -->
<g id="edge1" class="edge">
<title>DatabaseModule&#45;&gt;GqlApiModule</title>
<path fill="none" stroke="black" d="M509,-84.91C509,-104.14 509,-131.8 509,-131.8 509,-131.8 356.75,-131.8 356.75,-131.8"/>
<polygon fill="black" stroke="black" points="356.75,-128.3 346.75,-131.8 356.75,-135.3 356.75,-128.3"/>
</g>
<!-- PostsLoaders -->
<g id="node3" class="node">
<title>PostsLoaders</title>
<ellipse fill="#fdb462" stroke="black" cx="367" cy="-66.8" rx="62.57" ry="18"/>
<text text-anchor="middle" x="367" y="-62.6" font-family="Times,serif" font-size="14.00">PostsLoaders</text>
</g>
<!-- PostsLoaders&#45;&gt;GqlApiModule -->
<g id="edge2" class="edge">
<title>PostsLoaders&#45;&gt;GqlApiModule</title>
<path fill="none" stroke="black" d="M325.62,-80.58C325.62,-80.58 325.62,-103.35 325.62,-103.35"/>
<polygon fill="black" stroke="black" points="322.12,-103.35 325.62,-113.35 329.12,-103.35 322.12,-103.35"/>
</g>
<!-- PostsService -->
<g id="node4" class="node">
<title>PostsService</title>
<ellipse fill="#fdb462" stroke="black" cx="226" cy="-66.8" rx="60.28" ry="18"/>
<text text-anchor="middle" x="226" y="-62.6" font-family="Times,serif" font-size="14.00">PostsService</text>
</g>
<!-- PostsService&#45;&gt;GqlApiModule -->
<g id="edge3" class="edge">
<title>PostsService&#45;&gt;GqlApiModule</title>
<path fill="none" stroke="black" d="M265.81,-80.58C265.81,-80.58 265.81,-103.35 265.81,-103.35"/>
<polygon fill="black" stroke="black" points="262.31,-103.35 265.81,-113.35 269.31,-103.35 262.31,-103.35"/>
</g>
<!-- UsersService -->
<g id="node5" class="node">
<title>UsersService</title>
<ellipse fill="#fdb462" stroke="black" cx="86" cy="-66.8" rx="61.97" ry="18"/>
<text text-anchor="middle" x="86" y="-62.6" font-family="Times,serif" font-size="14.00">UsersService</text>
</g>
<!-- UsersService&#45;&gt;GqlApiModule -->
<g id="edge4" class="edge">
<title>UsersService&#45;&gt;GqlApiModule</title>
<path fill="none" stroke="black" d="M86,-84.91C86,-104.14 86,-131.8 86,-131.8 86,-131.8 235.43,-131.8 235.43,-131.8"/>
<polygon fill="black" stroke="black" points="235.43,-135.3 245.43,-131.8 235.43,-128.3 235.43,-135.3"/>
</g>
</g>
</svg>
