<?xml version="1.0" encoding="UTF-8" standalone="no"?>
<!DOCTYPE svg PUBLIC "-//W3C//DTD SVG 1.1//EN"
 "http://www.w3.org/Graphics/SVG/1.1/DTD/svg11.dtd">
<!-- Generated by graphviz version 5.0.0 (20220707.1540)
 -->
<!-- Title: dependencies Pages: 1 -->
<svg width="398pt" height="174pt"
 viewBox="0.00 0.00 398.00 173.80" xmlns="http://www.w3.org/2000/svg" xmlns:xlink="http://www.w3.org/1999/xlink">
<g id="graph0" class="graph" transform="scale(1 1) rotate(0) translate(4 169.8)">
<title>dependencies</title>
<polygon fill="white" stroke="transparent" points="-4,4 -4,-169.8 394,-169.8 394,4 -4,4"/>
<text text-anchor="middle" x="195" y="-8.2" font-family="sans-serif" font-size="14.00">dependencies</text>
<g id="clust1" class="cluster">
<title>cluster_AppModule</title>
<polygon fill="none" stroke="black" stroke-dasharray="1,5" points="8,-32.8 8,-157.8 382,-157.8 382,-32.8 8,-32.8"/>
</g>
<g id="clust3" class="cluster">
<title>cluster_AppModule_imports</title>
<polygon fill="none" stroke="black" points="16,-40.8 16,-92.8 374,-92.8 374,-40.8 16,-40.8"/>
</g>
<!-- AuthzModule -->
<g id="node1" class="node">
<title>AuthzModule</title>
<polygon fill="#8dd3c7" stroke="black" points="365.77,-84.8 362.77,-88.8 341.77,-88.8 338.77,-84.8 272.23,-84.8 272.23,-48.8 365.77,-48.8 365.77,-84.8"/>
<text text-anchor="middle" x="319" y="-62.6" font-family="Times,serif" font-size="14.00">AuthzModule</text>
</g>
<!-- AppModule -->
<g id="node4" class="node">
<title>AppModule</title>
<polygon fill="#8dd3c7" stroke="black" points="240.66,-149.8 237.66,-153.8 216.66,-153.8 213.66,-149.8 157.34,-149.8 157.34,-113.8 240.66,-113.8 240.66,-149.8"/>
<text text-anchor="middle" x="199" y="-127.6" font-family="Times,serif" font-size="14.00">AppModule</text>
</g>
<!-- AuthzModule&#45;&gt;AppModule -->
<g id="edge1" class="edge">
<title>AuthzModule&#45;&gt;AppModule</title>
<path fill="none" stroke="black" d="M319,-84.91C319,-104.14 319,-131.8 319,-131.8 319,-131.8 250.97,-131.8 250.97,-131.8"/>
<polygon fill="black" stroke="black" points="250.97,-128.3 240.97,-131.8 250.97,-135.3 250.97,-128.3"/>
</g>
<!-- DatabaseModule -->
<g id="node2" class="node">
<title>DatabaseModule</title>
<polygon fill="#8dd3c7" stroke="black" points="254.36,-84.8 251.36,-88.8 230.36,-88.8 227.36,-84.8 143.64,-84.8 143.64,-48.8 254.36,-48.8 254.36,-84.8"/>
<text text-anchor="middle" x="199" y="-62.6" font-family="Times,serif" font-size="14.00">DatabaseModule</text>
</g>
<!-- DatabaseModule&#45;&gt;AppModule -->
<g id="edge2" class="edge">
<title>DatabaseModule&#45;&gt;AppModule</title>
<path fill="none" stroke="black" d="M199,-84.91C199,-84.91 199,-103.79 199,-103.79"/>
<polygon fill="black" stroke="black" points="195.5,-103.79 199,-113.79 202.5,-103.79 195.5,-103.79"/>
</g>
<!-- GqlApiModule -->
<g id="node3" class="node">
<title>GqlApiModule</title>
<polygon fill="#8dd3c7" stroke="black" points="125.55,-84.8 122.55,-88.8 101.55,-88.8 98.55,-84.8 24.45,-84.8 24.45,-48.8 125.55,-48.8 125.55,-84.8"/>
<text text-anchor="middle" x="75" y="-62.6" font-family="Times,serif" font-size="14.00">GqlApiModule</text>
</g>
<!-- GqlApiModule&#45;&gt;AppModule -->
<g id="edge3" class="edge">
<title>GqlApiModule&#45;&gt;AppModule</title>
<path fill="none" stroke="black" d="M75,-84.91C75,-104.14 75,-131.8 75,-131.8 75,-131.8 147.02,-131.8 147.02,-131.8"/>
<polygon fill="black" stroke="black" points="147.02,-135.3 157.02,-131.8 147.02,-128.3 147.02,-135.3"/>
</g>
</g>
</svg>
