<?xml version="1.0" encoding="UTF-8" standalone="no"?>
<!DOCTYPE svg PUBLIC "-//W3C//DTD SVG 1.1//EN"
 "http://www.w3.org/Graphics/SVG/1.1/DTD/svg11.dtd">
<!-- Generated by graphviz version 5.0.0 (20220707.1540)
 -->
<!-- Title: dependencies Pages: 1 -->
<svg width="788pt" height="315pt"
 viewBox="0.00 0.00 788.00 314.80" xmlns="http://www.w3.org/2000/svg" xmlns:xlink="http://www.w3.org/1999/xlink">
<g id="graph0" class="graph" transform="scale(1 1) rotate(0) translate(4 310.8)">
<title>dependencies</title>
<polygon fill="white" stroke="transparent" points="-4,4 -4,-310.8 784,-310.8 784,4 -4,4"/>
<text text-anchor="middle" x="390" y="-8.2" font-family="sans-serif" font-size="14.00">dependencies</text>
<g id="clust1" class="cluster">
<title>cluster_AppModule</title>
<polygon fill="none" stroke="black" stroke-dasharray="1,5" points="454,-108.8 454,-298.8 708,-298.8 708,-108.8 454,-108.8"/>
</g>
<g id="clust3" class="cluster">
<title>cluster_AppModule_imports</title>
<polygon fill="none" stroke="black" points="462,-116.8 462,-233.8 700,-233.8 700,-116.8 462,-116.8"/>
</g>
<g id="clust7" class="cluster">
<title>cluster_AuthzModule</title>
<polygon fill="none" stroke="black" stroke-dasharray="1,5" points="412,-32.8 412,-100.8 558,-100.8 558,-32.8 412,-32.8"/>
</g>
<g id="clust12" class="cluster">
<title>cluster_AuthzModule_providers</title>
<polygon fill="none" stroke="black" points="420,-40.8 420,-92.8 550,-92.8 550,-40.8 420,-40.8"/>
</g>
<g id="clust13" class="cluster">
<title>cluster_DatabaseModule</title>
<polygon fill="none" stroke="black" stroke-dasharray="1,5" points="566,-32.8 566,-100.8 772,-100.8 772,-32.8 566,-32.8"/>
</g>
<g id="clust18" class="cluster">
<title>cluster_DatabaseModule_providers</title>
<polygon fill="none" stroke="black" points="574,-40.8 574,-92.8 764,-92.8 764,-40.8 574,-40.8"/>
</g>
<g id="clust19" class="cluster">
<title>cluster_GqlApiModule</title>
<polygon fill="none" stroke="black" stroke-dasharray="1,5" points="8,-108.8 8,-176.8 446,-176.8 446,-108.8 8,-108.8"/>
</g>
<g id="clust24" class="cluster">
<title>cluster_GqlApiModule_providers</title>
<polygon fill="none" stroke="black" points="16,-116.8 16,-168.8 438,-168.8 438,-116.8 16,-116.8"/>
</g>
<!-- AuthzModule -->
<g id="node1" class="node">
<title>AuthzModule</title>
<polygon fill="#8dd3c7" stroke="black" points="563.77,-160.8 560.77,-164.8 539.77,-164.8 536.77,-160.8 470.23,-160.8 470.23,-124.8 563.77,-124.8 563.77,-160.8"/>
<text text-anchor="middle" x="517" y="-138.6" font-family="Times,serif" font-size="14.00">AuthzModule</text>
</g>
<!-- AppModule -->
<g id="node4" class="node">
<title>AppModule</title>
<polygon fill="#8dd3c7" stroke="black" points="632.66,-290.8 629.66,-294.8 608.66,-294.8 605.66,-290.8 549.34,-290.8 549.34,-254.8 632.66,-254.8 632.66,-290.8"/>
<text text-anchor="middle" x="591" y="-268.6" font-family="Times,serif" font-size="14.00">AppModule</text>
</g>
<!-- AuthzModule&#45;&gt;AppModule -->
<g id="edge1" class="edge">
<title>AuthzModule&#45;&gt;AppModule</title>
<path fill="none" stroke="black" d="M564.02,-136.8C571.41,-136.8 576.67,-136.8 576.67,-136.8 576.67,-136.8 576.67,-244.74 576.67,-244.74"/>
<polygon fill="black" stroke="black" points="573.17,-244.74 576.67,-254.74 580.17,-244.74 573.17,-244.74"/>
</g>
<!-- DatabaseModule -->
<g id="node2" class="node">
<title>DatabaseModule</title>
<polygon fill="#8dd3c7" stroke="black" points="692.36,-160.8 689.36,-164.8 668.36,-164.8 665.36,-160.8 581.64,-160.8 581.64,-124.8 692.36,-124.8 692.36,-160.8"/>
<text text-anchor="middle" x="637" y="-138.6" font-family="Times,serif" font-size="14.00">DatabaseModule</text>
</g>
<!-- GqlApiModule -->
<g id="node3" class="node">
<title>GqlApiModule</title>
<polygon fill="#8dd3c7" stroke="black" points="571.55,-225.8 568.55,-229.8 547.55,-229.8 544.55,-225.8 470.45,-225.8 470.45,-189.8 571.55,-189.8 571.55,-225.8"/>
<text text-anchor="middle" x="521" y="-203.6" font-family="Times,serif" font-size="14.00">GqlApiModule</text>
</g>
<!-- DatabaseModule&#45;&gt;GqlApiModule -->
<g id="edge6" class="edge">
<title>DatabaseModule&#45;&gt;GqlApiModule</title>
<path fill="none" stroke="black" d="M581.5,-148.8C573.45,-148.8 567.83,-148.8 567.83,-148.8 567.83,-148.8 567.83,-179.78 567.83,-179.78"/>
<polygon fill="black" stroke="black" points="564.33,-179.78 567.83,-189.78 571.33,-179.78 564.33,-179.78"/>
</g>
<!-- DatabaseModule&#45;&gt;AppModule -->
<g id="edge2" class="edge">
<title>DatabaseModule&#45;&gt;AppModule</title>
<path fill="none" stroke="black" d="M607.2,-160.88C607.2,-160.88 607.2,-244.46 607.2,-244.46"/>
<polygon fill="black" stroke="black" points="603.7,-244.46 607.2,-254.46 610.7,-244.46 603.7,-244.46"/>
</g>
<!-- GqlApiModule&#45;&gt;AppModule -->
<g id="edge3" class="edge">
<title>GqlApiModule&#45;&gt;AppModule</title>
<path fill="none" stroke="black" d="M560.47,-225.91C560.47,-225.91 560.47,-244.79 560.47,-244.79"/>
<polygon fill="black" stroke="black" points="556.97,-244.79 560.47,-254.79 563.97,-244.79 556.97,-244.79"/>
</g>
<!-- JwtStrategy -->
<g id="node5" class="node">
<title>JwtStrategy</title>
<ellipse fill="#fdb462" stroke="black" cx="485" cy="-66.8" rx="56.77" ry="18"/>
<text text-anchor="middle" x="485" y="-62.6" font-family="Times,serif" font-size="14.00">JwtStrategy</text>
</g>
<!-- JwtStrategy&#45;&gt;AuthzModule -->
<g id="edge4" class="edge">
<title>JwtStrategy&#45;&gt;AuthzModule</title>
<path fill="none" stroke="black" d="M505.88,-83.67C505.88,-83.67 505.88,-114.65 505.88,-114.65"/>
<polygon fill="black" stroke="black" points="502.38,-114.65 505.88,-124.65 509.38,-114.65 502.38,-114.65"/>
</g>
<!-- PostsDataInitializer -->
<g id="node6" class="node">
<title>PostsDataInitializer</title>
<ellipse fill="#fdb462" stroke="black" cx="669" cy="-66.8" rx="87.4" ry="18"/>
<text text-anchor="middle" x="669" y="-62.6" font-family="Times,serif" font-size="14.00">PostsDataInitializer</text>
</g>
<!-- PostsDataInitializer&#45;&gt;DatabaseModule -->
<g id="edge5" class="edge">
<title>PostsDataInitializer&#45;&gt;DatabaseModule</title>
<path fill="none" stroke="black" d="M637.11,-83.67C637.11,-83.67 637.11,-114.65 637.11,-114.65"/>
<polygon fill="black" stroke="black" points="633.61,-114.65 637.11,-124.65 640.61,-114.65 633.61,-114.65"/>
</g>
<!-- PostsLoaders -->
<g id="node7" class="node">
<title>PostsLoaders</title>
<ellipse fill="#fdb462" stroke="black" cx="225" cy="-142.8" rx="62.57" ry="18"/>
<text text-anchor="middle" x="225" y="-138.6" font-family="Times,serif" font-size="14.00">PostsLoaders</text>
</g>
<!-- PostsLoaders&#45;&gt;GqlApiModule -->
<g id="edge7" class="edge">
<title>PostsLoaders&#45;&gt;GqlApiModule</title>
<path fill="none" stroke="black" d="M225,-160.91C225,-180.14 225,-207.8 225,-207.8 225,-207.8 460.12,-207.8 460.12,-207.8"/>
<polygon fill="black" stroke="black" points="460.12,-211.3 470.12,-207.8 460.12,-204.3 460.12,-211.3"/>
</g>
<!-- PostsService -->
<g id="node8" class="node">
<title>PostsService</title>
<ellipse fill="#fdb462" stroke="black" cx="84" cy="-142.8" rx="60.28" ry="18"/>
<text text-anchor="middle" x="84" y="-138.6" font-family="Times,serif" font-size="14.00">PostsService</text>
</g>
<!-- PostsService&#45;&gt;GqlApiModule -->
<g id="edge8" class="edge">
<title>PostsService&#45;&gt;GqlApiModule</title>
<path fill="none" stroke="black" d="M84,-161.09C84,-183.01 84,-216.8 84,-216.8 84,-216.8 460.44,-216.8 460.44,-216.8"/>
<polygon fill="black" stroke="black" points="460.44,-220.3 470.44,-216.8 460.44,-213.3 460.44,-220.3"/>
</g>
<!-- UsersService -->
<g id="node9" class="node">
<title>UsersService</title>
<ellipse fill="#fdb462" stroke="black" cx="368" cy="-142.8" rx="61.97" ry="18"/>
<text text-anchor="middle" x="368" y="-138.6" font-family="Times,serif" font-size="14.00">UsersService</text>
</g>
<!-- UsersService&#45;&gt;GqlApiModule -->
<g id="edge9" class="edge">
<title>UsersService&#45;&gt;GqlApiModule</title>
<path fill="none" stroke="black" d="M368,-160.83C368,-177.2 368,-198.8 368,-198.8 368,-198.8 460.05,-198.8 460.05,-198.8"/>
<polygon fill="black" stroke="black" points="460.05,-202.3 470.05,-198.8 460.05,-195.3 460.05,-202.3"/>
</g>
</g>
</svg>
